<svg width="270" height="165" viewBox="0 0 270 165" fill="none" xmlns="http://www.w3.org/2000/svg">
<g clip-path="url(#clip0_10_497)">
<path d="M0 165L270 165V0L0 0V165Z" fill="#F30006"/>
<path d="M196.586 85.1297L198.946 74.8939L199.38 72.8467H199.412L199.264 74.8939L198.576 84.6701L196.586 85.1297ZM190.881 91.0728H195.178L195.845 88.1169H198.385L198.184 91.0728H202.651L203 67.9481H197.242L190.871 91.0728H190.881ZM189.855 91.0728L190.352 87.6991H186.288C186.552 87.1873 186.775 86.6755 186.955 86.1324L193.294 67.9481H184.436L183.938 71.3218H187.759C187.494 71.8231 187.261 72.3662 187.018 73.0034L180.604 91.0728H189.844H189.855ZM180.011 91.0728L180.509 87.6991H176.445C176.709 87.1873 176.931 86.6755 177.111 86.1324L183.451 67.9481H174.592L174.095 71.3218H177.916C177.651 71.8231 177.418 72.3662 177.185 73.0034L170.771 91.0728H180.011ZM164.188 85.1297L166.548 74.8939L166.982 72.8467H167.014L166.866 74.8939L166.178 84.6701L164.188 85.1297ZM158.473 91.0728H162.78L163.447 88.1169H165.987L165.786 91.0728H170.253L170.602 67.9481H164.844L158.473 91.0728ZM149.392 91.0728H157.647L158.166 87.5842H154.281L157.213 67.9481H152.842L149.392 91.0728ZM144.311 79.6462H143.327L144.586 71.2382H145.571C146.238 71.2382 146.513 71.6038 146.396 72.3976L145.475 78.5391C145.359 79.3015 144.989 79.6462 144.322 79.6462M145.92 67.9481H140.713L137.262 91.0728H141.612L142.819 82.9259H144.512C147.613 82.9259 149.318 81.4114 149.815 78.0168L150.566 72.9511C151.064 69.5984 149.593 67.9481 145.909 67.9481M131.97 86.3831C131.801 87.5738 131.346 88.1378 130.637 88.1378C129.927 88.1378 129.451 87.6782 129.663 86.2264L131.684 72.6691C131.864 71.4784 132.309 70.9144 133.018 70.9144C133.727 70.9144 134.203 71.374 133.992 72.8363L131.97 86.3935V86.3831ZM136.384 86.0802L138.236 73.7136C138.935 69.0761 136.648 67.5825 133.251 67.5825C129.853 67.5825 127.832 69.2537 127.26 72.9511L125.397 85.3177C124.699 89.9552 126.985 91.4488 130.383 91.4488C133.78 91.4488 135.823 89.7776 136.373 86.0802M122.021 67.9481L120.613 77.411L118.454 77.902L119.926 67.9377H115.575L112.125 91.0623H116.475L117.978 80.9414H120.074L118.571 91.0623H122.921L126.371 67.9377H122.021V67.9481ZM105.838 91.4383C110.305 91.4383 111.575 88.284 111.596 85.2133C111.617 82.8319 110.823 81.004 109.807 79.0822L108.569 76.7739C107.563 74.8939 107.193 73.5569 107.193 72.5334C107.214 71.4471 107.532 70.7369 108.315 70.7369C108.95 70.7369 109.49 71.1129 109.214 72.8676L108.897 75.0192L113.014 74.0583L113.152 73.1496C113.776 69.003 111.712 67.6034 108.495 67.6034C105.076 67.6034 103.002 69.7864 102.97 73.348C102.949 75.3117 103.742 77.0664 104.748 79.0509L105.923 81.3592C106.865 83.2079 107.309 84.6284 107.299 85.9966C107.299 87.1664 107.066 88.2736 106.06 88.2736C105.319 88.2736 104.822 87.8558 105.118 85.9235L105.499 83.3437L101.213 84.3359L101.033 85.6102C100.398 89.9865 102.695 91.4383 105.838 91.4383ZM68 95L76.9224 92.9319L77.6633 87.8767C78.637 90.5192 81.283 92.1068 84.0772 92.1068C88.4802 92.1068 91.7295 88.378 91.7295 84.3881C91.7295 81.1712 89.5915 78.8733 86.9773 78.1004H92.7138L94.8201 64L85.8977 66.0681L85.1568 71.1233C84.1831 68.5017 81.5476 66.8932 78.7428 66.8932C74.3399 66.8932 71.0906 70.6429 71.0906 74.6014C71.0906 77.8184 73.2285 80.1162 75.8428 80.8891H70.1062L68 94.9896V95Z" fill="white"/>
</g>
<defs>
<clipPath id="clip0_10_497">
<rect width="270" height="165" fill="white"/>
</clipPath>
</defs>
</svg>
