<?xml version="1.0" encoding="UTF-8"?>
<svg id="_图层_2" data-name="图层 2" xmlns="http://www.w3.org/2000/svg" viewBox="0 0 127.46 29.65">
  <defs>
    <style>
      .cls-1 {
        fill: #fff;
      }
    </style>
  </defs>
  <g id="_图层_2-2" data-name=" 图层 2">
    <g id="_图层_1-2" data-name=" 图层 1-2">
      <path class="cls-1" d="M121.4,20.2l2.23-9.8.41-1.96h.03l-.14,1.96-.65,9.35-1.88.44h0ZM116.01,25.89h4.06l.63-2.83h2.4l-.19,2.83h4.22l.33-22.12h-5.43l-6.02,22.12ZM115.05,25.89l.47-3.22h-3.84c.25-.49.46-.98.63-1.5l5.99-17.4h-8.36l-.47,3.22h3.6c-.25.48-.47,1-.7,1.61l-6.05,17.29h8.73ZM105.75,25.89l.47-3.22h-3.84c.25-.49.46-.98.63-1.5l5.99-17.4h-8.36l-.47,3.22h3.6c-.25.48-.47,1-.69,1.61l-6.05,17.29s8.72,0,8.72,0ZM90.81,20.2l2.23-9.8.41-1.96h.03l-.14,1.96-.65,9.35-1.88.44h0ZM85.42,25.89h4.06l.63-2.83h2.4l-.19,2.83h4.22l.33-22.12h-5.44l-6.02,22.12h.01ZM76.84,25.89h7.79l.49-3.33h-3.67l2.77-18.79h-4.12s-3.26,22.12-3.26,22.12ZM72.05,14.95h-.93l1.19-8.04h.93c.63,0,.89.35.78,1.11l-.87,5.88c-.11.73-.46,1.06-1.09,1.06M73.57,3.77h-4.91l-3.25,22.12h4.11l1.14-7.79h1.6c2.92,0,4.54-1.45,5.01-4.69l.71-4.85c.47-3.21-.92-4.79-4.39-4.79M60.39,21.4c-.16,1.14-.58,1.67-1.26,1.67s-1.12-.44-.92-1.83l1.91-12.97c.17-1.14.58-1.68,1.26-1.68s1.12.44.92,1.83l-1.91,12.97h0ZM64.56,21.11l1.75-11.83c.66-4.44-1.5-5.86-4.71-5.86s-5.12,1.59-5.66,5.14l-1.75,11.83c-.66,4.44,1.5,5.86,4.71,5.86s5.14-1.59,5.66-5.14M51.01,3.77l-1.33,9.05-2.04.47,1.39-9.53h-4.11l-3.26,22.12h4.11l1.42-9.69h1.98l-1.42,9.69h4.11l3.26-22.12h-4.11,0ZM35.73,26.23c4.22,0,5.42-3.02,5.44-5.96.02-2.28-.73-4.03-1.69-5.86l-1.17-2.21c-.95-1.8-1.3-3.08-1.3-4.06.02-1.04.32-1.72,1.06-1.72.6,0,1.11.36.85,2.04l-.3,2.05,3.89-.92.13-.87c.58-3.97-1.36-5.31-4.39-5.31-3.22,0-5.18,2.08-5.21,5.5-.02,1.88.73,3.56,1.67,5.45l1.11,2.21c.89,1.77,1.31,3.13,1.3,4.44,0,1.12-.22,2.18-1.17,2.18-.7,0-1.17-.4-.88-2.24l.36-2.47-4.04.95-.17,1.22c-.6,4.19,1.56,5.58,4.53,5.58M0,29.65l8.42-1.98.69-4.83c.92,2.53,3.41,4.05,6.05,4.05,4.16,0,7.22-3.57,7.22-7.38,0-3.08-2.02-5.28-4.49-6.02h5.42l1.99-13.49-8.42,1.97-.7,4.84c-.92-2.51-3.41-4.05-6.05-4.05-4.16,0-7.22,3.59-7.22,7.38,0,3.08,2.02,5.28,4.49,6.02H1.99l-1.99,13.49Z"/>
    </g>
  </g>
</svg>